# xmcd
# Track frame offsets:
# 150
# 16982
# 37000
# 53552
# 76960
# 88312
# 111050
# 124792
# 142595
# 163027
# 185517
#
# Disc length: 2756 seconds
# Revision: 0
# Processed by: cddbd v1.5.2PL0 Copyright (c) Steve Scherf et al.
# Submitted via: VisiTrax 2.10.2.252 - For more info visit www.synapsa.com
#
DISCID=860ac20b
DTITLE=Arnesen Bluesband - Walkin´with my baby
DYEAR=2006
DGENRE=Blues
TTITLE0=Boggie man
TTITLE1=Don´t burn down the bridge
TTITLE2=Mess of blues
TTITLE3=I´m more like the moon
TTITLE4=Lawdy miss Clawdy
TTITLE5=Things about comin my way
TTITLE6=Walkin´with my baby
TTITLE7=Rock me
TTITLE8=On the other side
TTITLE9=Confessin´the blues
TTITLE10=Trail of tears
EXTD=
EXTT0=
EXTT1=
EXTT2=
EXTT3=
EXTT4=
EXTT5=
EXTT6=
EXTT7=
EXTT8=
EXTT9=
EXTT10=
PLAYORDER=
